<?xml version="1.0" standalone="no"?>
<!DOCTYPE svg PUBLIC "-//W3C//DTD SVG 20010904//EN"
 "http://www.w3.org/TR/2001/REC-SVG-20010904/DTD/svg10.dtd">
<svg version="1.0" xmlns="http://www.w3.org/2000/svg"
 width="640.000000pt" height="1280.000000pt" viewBox="0 0 640.000000 1280.000000"
 preserveAspectRatio="xMidYMid meet">
<metadata>
Created by potrace 1.15, written by Peter Selinger 2001-2017
</metadata>
<g transform="translate(0.000000,1280.000000) scale(0.100000,-0.100000)"
fill="#000000" stroke="none">
<path d="M2975 12785 c-27 -8 -53 -14 -56 -15 -4 0 -34 -18 -67 -40 -79 -53
-176 -174 -290 -360 -155 -254 -158 -385 -22 -805 61 -186 77 -252 86 -337 l7
-67 -54 -54 c-133 -132 -557 -415 -831 -554 -60 -30 -168 -79 -241 -109 -72
-30 -142 -61 -154 -69 -14 -10 -29 -39 -43 -82 -70 -232 -208 -1026 -240
-1383 -58 -646 -79 -964 -70 -1030 12 -86 46 -178 112 -300 142 -263 298 -484
500 -711 107 -119 168 -204 206 -287 l25 -56 -6 -1771 -7 -1770 67 -34 c100
-52 120 -73 134 -139 17 -75 15 -346 -7 -887 -9 -236 -17 -547 -17 -690 0
-311 6 -350 92 -533 87 -188 95 -222 86 -367 -12 -177 -12 -272 2 -286 23 -23
128 -39 253 -38 161 1 367 13 376 22 4 3 11 73 15 154 15 274 42 411 106 537
48 94 53 169 23 366 -45 305 -45 675 0 1390 11 173 20 324 20 336 0 18 14 25
100 48 174 47 275 50 314 10 43 -42 55 -200 66 -844 13 -762 26 -939 83 -1175
30 -121 32 -142 32 -310 0 -162 -4 -197 -33 -346 -17 -91 -32 -174 -32 -183 0
-15 40 -16 463 -16 711 1 840 15 840 94 -1 39 -41 84 -196 221 -216 191 -237
227 -237 414 0 125 19 225 56 295 48 91 53 159 54 676 0 623 18 849 80 1045
33 100 63 152 138 237 77 88 77 86 76 473 -1 440 -24 860 -74 1325 -36 340
-42 461 -47 1111 l-5 646 103 54 c181 95 249 178 268 328 10 79 41 152 99 238
92 136 121 216 162 448 16 94 45 258 64 366 68 387 68 479 1 538 -73 64 -133
167 -188 327 -100 288 -157 591 -197 1054 -14 166 -36 284 -65 347 -55 121
-363 391 -560 491 -57 29 -169 60 -244 67 -79 8 -125 30 -177 87 -52 57 -78
101 -109 183 -44 117 -58 199 -57 350 0 159 17 261 56 327 53 92 89 318 90
563 0 134 -3 182 -17 227 -39 128 -138 187 -386 228 -244 41 -436 50 -526 25z"/>
</g>
</svg>
